<svg width="17" height="28" viewBox="0 0 17 28" fill="none" xmlns="http://www.w3.org/2000/svg">
<path d="M5.69369 23.8H9.96396V28H5.69369V23.8ZM8.54053 0C16.1558 0.308 19.4724 7.868 14.9459 13.538C13.7645 14.938 11.8571 15.862 10.9176 17.038C9.96396 18.2 9.96396 19.6 9.96396 21H5.69369C5.69369 18.662 5.69369 16.688 6.64738 15.288C7.58684 13.888 9.49423 13.062 10.6757 12.138C14.1203 9.002 13.2663 4.564 8.54053 4.2C7.40799 4.2 6.32183 4.6425 5.521 5.43015C4.72017 6.2178 4.27027 7.28609 4.27027 8.4H0C0 6.17218 0.899804 4.03561 2.50146 2.4603C4.10313 0.884997 6.27544 0 8.54053 0Z" fill="#143319"/>
</svg>
