<svg width="21" height="34" viewBox="0 0 21 34" fill="none" xmlns="http://www.w3.org/2000/svg">
<path d="M6.91376 28.9H12.0991V34H6.91376V28.9ZM10.3706 0C19.6178 0.374 23.6451 9.554 18.1486 16.439C16.714 18.139 14.3979 19.261 13.2571 20.689C12.0991 22.1 12.0991 23.8 12.0991 25.5H6.91376C6.91376 22.661 6.91376 20.264 8.07182 18.564C9.21259 16.864 11.5287 15.861 12.9633 14.739C17.1461 10.931 16.1091 5.542 10.3706 5.1C8.99541 5.1 7.6765 5.63732 6.70407 6.59375C5.73163 7.55019 5.18532 8.84739 5.18532 10.2H0C0 7.49479 1.09262 4.90038 3.03749 2.98751C4.98236 1.07464 7.62018 0 10.3706 0Z" fill="#143319"/>
</svg>
