<svg width="103" height="106" viewBox="0 0 103 106" fill="none" xmlns="http://www.w3.org/2000/svg">
<path d="M102.877 53.7748C102.674 50.5118 99.8859 48.23 96.6166 48.23H60.6954C56.8294 48.23 53.6954 51.364 53.6954 55.23V55.699C53.6954 59.565 56.8294 62.699 60.6954 62.699H80.5033C84.6072 62.699 87.9168 66.2673 86.6695 70.177C81.9263 85.0451 67.4997 91.531 53.7483 91.531C33.4869 91.531 15.7119 75.525 15.7119 53C15.7119 31.27 32.6405 14.469 53.8012 14.469C62.6037 14.469 69.4426 17.4965 73.8803 20.291C77.3025 22.4461 82.0919 22.4369 84.8894 19.5163L85.2903 19.0977C87.8205 16.456 87.8325 12.3528 84.8904 10.1791C79.1342 5.92595 68.3996 0 53.2722 0C23.2239 0 0 25.44 0 53C0 79.765 21.8485 106 54.0657 106C82.3683 106 103 86.549 103 57.823C103 56.3087 102.951 54.9547 102.877 53.7748Z" fill="#143319"/>
</svg>
