<svg width="137" height="160" viewBox="0 0 137 160" fill="none" xmlns="http://www.w3.org/2000/svg">
<path d="M0 91.3333C0 109.501 7.21694 126.924 20.0632 139.77C32.9094 152.616 50.3327 159.833 68.5 159.833C68.5 121.778 37.8272 91.3333 0 91.3333ZM68.5 34.25C73.5465 34.25 78.3863 36.2547 81.9547 39.8231C85.5231 43.3915 87.5278 48.2313 87.5278 53.2778C87.5278 58.3243 85.5231 63.164 81.9547 66.7324C78.3863 70.3008 73.5465 72.3055 68.5 72.3055C63.4535 72.3055 58.6137 70.3008 55.0453 66.7324C51.4769 63.164 49.4722 58.3243 49.4722 53.2778C49.4722 48.2313 51.4769 43.3915 55.0453 39.8231C58.6137 36.2547 63.4535 34.25 68.5 34.25ZM19.7889 70.4028C19.7889 75.4492 21.7936 80.289 25.362 83.8574C28.9304 87.4258 33.7702 89.4305 38.8167 89.4305C42.8506 89.4305 46.58 88.1367 49.4722 86.0817V87.5278C49.4722 92.5742 51.4769 97.414 55.0453 100.982C58.6137 104.551 63.4535 106.556 68.5 106.556C73.5465 106.556 78.3863 104.551 81.9547 100.982C85.5231 97.414 87.5278 92.5742 87.5278 87.5278V86.0817C90.42 88.1367 94.1494 89.4305 98.1833 89.4305C103.23 89.4305 108.07 87.4258 111.638 83.8574C115.206 80.289 117.211 75.4492 117.211 70.4028C117.211 62.7917 112.721 56.3222 106.327 53.2778C112.721 50.2333 117.211 43.6878 117.211 36.1528C117.211 31.1063 115.206 26.2665 111.638 22.6981C108.07 19.1297 103.23 17.125 98.1833 17.125C94.1494 17.125 90.42 18.3428 87.5278 20.4739V19.0278C87.5278 13.9813 85.5231 9.14151 81.9547 5.57311C78.3863 2.00471 73.5465 0 68.5 0C63.4535 0 58.6137 2.00471 55.0453 5.57311C51.4769 9.14151 49.4722 13.9813 49.4722 19.0278V20.4739C46.58 18.3428 42.8506 17.125 38.8167 17.125C33.7702 17.125 28.9304 19.1297 25.362 22.6981C21.7936 26.2665 19.7889 31.1063 19.7889 36.1528C19.7889 43.6878 24.2794 50.2333 30.6728 53.2778C24.2794 56.3222 19.7889 62.7917 19.7889 70.4028ZM68.5 159.833C86.6673 159.833 104.091 152.616 116.937 139.77C129.783 126.924 137 109.501 137 91.3333C98.9444 91.3333 68.5 121.778 68.5 159.833Z" fill="#143319"/>
</svg>
