<svg width="138" height="122" viewBox="0 0 138 122" fill="none" xmlns="http://www.w3.org/2000/svg">
<path d="M68.625 0C77.0888 0 83.875 6.78625 83.875 15.25C83.875 23.7138 77.0888 30.5 68.625 30.5C60.1613 30.5 53.375 23.7138 53.375 15.25C53.375 6.78625 60.2375 0 68.625 0ZM137.25 91.5V76.25C120.17 76.25 105.53 68.93 94.55 55.815L84.3325 43.615C82.9139 41.8954 81.132 40.5112 79.1149 39.562C77.0978 38.6128 74.8955 38.122 72.6662 38.125H64.8125C60.1613 38.125 55.8912 40.1075 52.9937 43.615L42.7762 55.815C31.72 68.93 17.08 76.25 0 76.25V91.5C21.1213 91.5 39.5737 82.5788 53.375 66.7188V83.875L23.79 95.6937C18.6812 97.7525 15.25 102.937 15.25 108.351C15.25 115.9 21.35 122 28.8988 122H45.75V118.188C45.75 113.132 47.7584 108.283 51.3333 104.708C54.9082 101.133 59.7568 99.125 64.8125 99.125H87.6875C89.8225 99.125 91.5 100.802 91.5 102.938C91.5 105.073 89.8225 106.75 87.6875 106.75H64.8125C58.4837 106.75 53.375 111.859 53.375 118.188V122H108.351C115.9 122 122 115.9 122 108.351C122 102.937 118.569 97.7525 113.46 95.6937L83.875 83.875V66.7188C97.6762 82.5788 116.129 91.5 137.25 91.5Z" fill="#143319"/>
</svg>
