<svg width="137" height="94" viewBox="0 0 137 94" fill="none" xmlns="http://www.w3.org/2000/svg">
<path d="M137 65.954C137 80.9997 124.944 93.16 110.079 93.16H26.9205C12.056 93.16 0 80.9997 0 65.954C0 52.4197 9.7955 41.2212 22.6735 39.1602C22.468 38.1983 22.3995 37.2365 22.3995 36.206C22.3995 26.7251 30.003 18.9618 39.456 18.9618C43.6345 18.9618 47.539 20.5419 50.4845 23.0839C55.759 11.061 62.5405 0 81.5835 0C104.668 0 115.56 17.9999 115.56 37.0304C115.56 37.7861 115.559 38.6106 115.491 39.3663C121.576 40.645 127.037 43.9864 130.954 48.8287C134.871 53.6709 137.006 59.7184 137 65.954Z" fill="#143319"/>
</svg>
