<svg width="137" height="137" viewBox="0 0 137 137" fill="none" xmlns="http://www.w3.org/2000/svg">
<path d="M15.8795 112.651L24.66 121.432L35.8691 110.285L27.0264 101.442M68.5 31.1364C47.8877 31.1364 31.1364 47.8877 31.1364 68.5C31.1364 89.1123 47.8877 105.864 68.5 105.864C89.1123 105.864 105.864 89.1123 105.864 68.5C105.864 47.8255 89.1123 31.1364 68.5 31.1364ZM118.318 74.7273H137V62.2727H118.318M101.131 110.285L112.34 121.432L121.12 112.651L109.974 101.442M121.12 24.9091L112.34 16.1909L101.131 27.3377L109.974 36.1805M74.7273 0H62.2727V18.6818H74.7273M35.8691 27.3377L24.66 16.1909L15.8795 24.9091L27.0264 36.1805L35.8691 27.3377ZM0 74.7273H18.6818V62.2727H0M74.7273 118.318H62.2727V137H74.7273" fill="#143319"/>
</svg>
